<?xml version="1.0" encoding="UTF-8"?> <!-- Generator: Adobe Illustrator 22.0.0, SVG Export Plug-In . SVG Version: 6.00 Build 0) --> <svg xmlns="http://www.w3.org/2000/svg" xmlns:xlink="http://www.w3.org/1999/xlink" version="1.1" id="Layer_1" x="0px" y="0px" viewBox="0 0 736 360.5" style="enable-background:new 0 0 736 360.5;" xml:space="preserve"> <style type="text/css"> .st0{fill:none;stroke:#19B6FF;stroke-width:2;stroke-miterlimit:10;} .st1{fill:#19B6FF;} .st2{fill:#1969FF;} .st3{fill:#A5CBFF;} .st4{fill:none;stroke:#FFFFFF;stroke-width:2;stroke-miterlimit:10;} .st5{fill:#FFFFFF;} .st6{fill:none;stroke:#A5CBFF;stroke-width:2;stroke-miterlimit:10;} .st7{fill:none;stroke:#19B6FF;stroke-width:2;stroke-linejoin:round;stroke-miterlimit:10;} .st8{fill:#FFFFFF;stroke:#15CD72;stroke-width:2;stroke-miterlimit:10;} .st9{fill:none;stroke:#15CD72;stroke-width:2;stroke-miterlimit:10;} .st10{fill:#FFFFFF;stroke:#FFFFFF;stroke-width:2;stroke-miterlimit:10;} </style> <g> <g> <line class="st0" x1="66" y1="136.9" x2="125.1" y2="196"></line> <g> <g> <polyline class="st1" points="474.2,273.7 474.1,171.8 384,220.5 297.9,169.1 296.5,278.2 384.4,330.6 "></polyline> <polygon class="st2" points="385.5,228.5 297.7,176.3 386.9,135.4 473.9,180.9 "></polygon> </g> <g> <g> <polygon class="st3" points="385,323 474.3,269.7 474.3,163.5 371.1,216.7 "></polygon> </g> <polygon class="st4" points="395.1,305.6 465.2,264.1 465.2,174.1 395.1,214.5 "></polygon> <g> <polygon class="st5" points="385,323.1 296.9,271 297.2,158.6 385,209.1 "></polygon> </g> <polygon class="st6" points="374.5,303.2 307.7,262.9 307.7,177.3 374.5,215.7 "></polygon> </g> <g> <path class="st1" d="M386.3,119.4l84.2,44.1L385,209l-84.5-50.3L386.3,119.4 M386.3,117.7l-89.2,40.9l88,50.4l89.2-45.5 L386.3,117.7L386.3,117.7z"></path> </g> <path class="st7" d="M354.3,123.5"></path> <path class="st7" d="M353.9,208.7"></path> </g> <circle class="st6" cx="670" cy="157.5" r="23.9"></circle> <line class="st6" x1="207" y1="147.6" x2="63.2" y2="57.5"></line> <polygon class="st0" points="213.1,173 138.6,173 101.3,237.6 138.6,302.1 213.1,302.1 250.3,237.6 "></polygon> <polygon class="st8" points="454.1,57.6 454.1,100 490.8,121.2 527.5,100 527.5,57.6 490.8,36.5 "></polygon> <rect x="602" y="43.7" transform="matrix(0.9245 -0.3812 0.3812 0.9245 25.4057 237.8721)" class="st3" width="22.2" height="22.2"></rect> <rect x="66.5" y="44.1" transform="matrix(0.5325 -0.8464 0.8464 0.5325 -10.0609 90.2631)" class="st6" width="20.3" height="20.3"></rect> <rect x="680" y="66.6" transform="matrix(0.866 -0.5 0.5 0.866 55.1059 353.6117)" class="st1" width="14.8" height="14.8"></rect> <rect x="496.9" y="225.6" transform="matrix(0.9027 -0.4303 0.4303 0.9027 -51.1944 239.6604)" class="st1" width="14.8" height="14.8"></rect> <rect x="577.9" y="55.6" transform="matrix(0.9027 -0.4303 0.4303 0.9027 29.83 257.9713)" class="st5" width="14.8" height="14.8"></rect> <path class="st1" d="M68.8,148.1L68.8,148.1c-9.2,4.4-20.2,0.5-24.6-8.7l0,0c-4.4-9.2-0.5-20.2,8.7-24.6l0,0 c9.2-4.4,20.2-0.5,24.6,8.7l0,0C81.9,132.8,78,143.7,68.8,148.1z"></path> <polygon class="st1" points="385.2,209 420.7,234 511.2,183.1 472.7,162.6 "></polygon> <polygon class="st3" points="205.2,186.7 146.5,186.7 117.1,237.6 146.5,288.4 205.2,288.4 234.5,237.6 "></polygon> <line class="st0" x1="553" y1="148.6" x2="690" y2="63.6"></line> <line class="st9" x1="507.3" y1="111" x2="565.8" y2="197.4"></line> <line class="st8" x1="453.7" y1="77.2" x2="275.1" y2="77.2"></line> <line class="st0" x1="253.4" y1="100.3" x2="212.6" y2="172.7"></line> <polygon class="st3" points="463.1,62.8 463.1,94.8 490.8,110.9 518.5,94.8 518.5,62.8 490.8,46.8 "></polygon> <polygon class="st3" points="302.7,54.3 227,54.3 227,102.3 281.7,102.3 294.3,115 294.3,102.3 302.7,102.3 "></polygon> <polygon class="st8" points="607.3,192.6 531.7,192.6 531.7,240.6 586.3,240.6 599,253.3 599,240.6 607.3,240.6 "></polygon> <line class="st10" x1="239.3" y1="69" x2="289.5" y2="69"></line> <line class="st10" x1="239.3" y1="78.1" x2="289.5" y2="78.1"></line> <line class="st10" x1="258.8" y1="87.3" x2="289.5" y2="87.3"></line> <path class="st8" d="M588.2,233.6"></path> <line class="st9" x1="544.3" y1="205" x2="594.3" y2="205"></line> <line class="st9" x1="544.3" y1="215.9" x2="594.3" y2="215.9"></line> <line class="st9" x1="544.7" y1="226.8" x2="564" y2="226.8"></line> </g> <line class="st0" x1="297.7" y1="193.6" x2="297.7" y2="277"></line> <polygon class="st3" points="384.7,208.9 343.3,233.9 256.1,177.6 299.2,157.6 "></polygon> </g> </svg> 