<?xml version="1.0" encoding="UTF-8"?> <!-- Generator: Adobe Illustrator 22.0.0, SVG Export Plug-In . SVG Version: 6.00 Build 0) --> <svg xmlns="http://www.w3.org/2000/svg" xmlns:xlink="http://www.w3.org/1999/xlink" version="1.1" id="Layer_1" x="0px" y="0px" viewBox="0 0 784.9 379.9" style="enable-background:new 0 0 784.9 379.9;" xml:space="preserve"> <style type="text/css"> .st0{fill:none;stroke:#1969FF;stroke-width:2;stroke-miterlimit:10;} .st1{fill:#FFFFFF;stroke:#1969FF;stroke-width:2;stroke-miterlimit:10;} .st2{fill:none;stroke:#19B6FF;stroke-width:2;stroke-miterlimit:10;} .st3{fill:#1969FF;} .st4{fill:#FFFFFF;stroke:#15CD72;stroke-width:2;stroke-miterlimit:10;} .st5{fill:#FFFFFF;stroke:#A5CBFF;stroke-width:2;stroke-miterlimit:10;} .st6{fill:#15CD72;} .st7{fill:#A5CBFF;stroke:#FFFFFF;stroke-width:2;stroke-miterlimit:10;} .st8{fill:#19B6FF;} .st9{fill:#124AB3;} .st10{fill:#FFFFFF;} .st11{fill:#15CD72;stroke:#FFFFFF;stroke-width:2;stroke-miterlimit:10;} </style> <line class="st0" x1="207.7" y1="44.8" x2="378.2" y2="338.2"></line> <polygon class="st1" points="386.4,244.2 386.4,138.5 294.8,85.6 203.2,138.5 203.2,244.2 294.8,297.1 "></polygon> <circle class="st2" cx="550.2" cy="195.5" r="134.4"></circle> <circle class="st3" cx="214.5" cy="56.4" r="19.1"></circle> <path class="st4" d="M739.3,180h-15v-52.4H587.7v136.6h136.6v-50.1h15c9.4,0,17.1-7.6,17.1-17.1C756.3,187.6,748.7,180,739.3,180z"></path> <polygon class="st5" points="386.6,132.2 386.6,189.1 351.7,189.1 351.7,202 386.6,202 386.6,259.6 514.1,259.6 514.1,132.2 "></polygon> <rect x="603.4" y="140.4" class="st6" width="109.1" height="111"></rect> <rect x="398.1" y="143.7" class="st7" width="104.5" height="104.5"></rect> <rect x="481.8" y="191" class="st8" width="34.2" height="12.1"></rect> <rect x="587.8" y="191" class="st8" width="34.2" height="12.1"></rect> <g> <rect x="248.8" y="145.3" transform="matrix(-1 -4.489399e-11 4.489399e-11 -1 592.0867 296.9355)" class="st9" width="94.4" height="6.4"></rect> <rect x="248.8" y="163.9" transform="matrix(-1 -4.487489e-11 4.487489e-11 -1 592.0867 334.1267)" class="st9" width="94.4" height="6.4"></rect> <rect x="248.8" y="182.5" transform="matrix(-1 -4.487489e-11 4.487489e-11 -1 592.0867 371.3179)" class="st9" width="94.4" height="6.4"></rect> <rect x="248.8" y="201.1" transform="matrix(-1 -4.477408e-11 4.477408e-11 -1 540.7041 408.5091)" class="st9" width="43.1" height="6.4"></rect> <rect x="248.8" y="219.7" transform="matrix(-1 -4.481627e-11 4.481627e-11 -1 540.7041 445.7003)" class="st9" width="43.1" height="6.4"></rect> </g> <path class="st4" d="M237.1,189.1h-33.4v-61.5H67V180H53.5c-9.4,0-17.1,7.6-17.1,17.1c0,9.4,7.6,17.1,17.1,17.1H67v50.1h136.6V202 h33.4V189.1z"></path> <rect x="358.4" y="315.5" transform="matrix(0.9561 0.2931 -0.2931 0.9561 112.7086 -94.4978)" class="st3" width="26.7" height="26.7"></rect> <polygon class="st8" points="589.1,218.1 589.1,174.6 551.4,152.8 513.7,174.6 513.7,218.1 551.4,239.9 "></polygon> <rect x="411.2" y="217.5" class="st10" width="17.8" height="17.8"></rect> <rect x="676.1" y="159.2" class="st10" width="17.5" height="17.5"></rect> <g> <polygon class="st10" points="561.4,202.4 561.4,190.3 550.9,184.2 540.4,190.3 540.4,202.4 550.9,208.5 "></polygon> </g> <rect x="76.7" y="138" class="st11" width="115.8" height="115.8"></rect> <rect x="93.7" y="155.9" class="st10" width="19.4" height="19.7"></rect> </svg> 