<svg width="81" height="52" viewBox="0 0 81 52" fill="none" xmlns="http://www.w3.org/2000/svg"><g clip-path="url(#clip0)"><path d="M23.765 31.057c-3.211 1.937-6.828 3.323-11.241 3.323-9.312 0-13.617-7.586-12.308-16.894l.094-.619c.068-.47.149-.942.243-1.385h4.724C6.49 9.886 10.688 4.412 16.49 4.412c2.821 0 4.467.672 6.154 1.802l1.62-2.327c-2.132-1.412-4.48-2.03-7.544-2.03-6.694 0-11.485 5.11-13.563 11.069h-1.93C3.536 5.999 9.19 0 16.978 0c4.277 0 7.233 1.143 9.851 3.322l-3.927 5.596c-2.092-1.655-3.495-2.637-6.68-2.637-5.02 0-8.597 5.354-9.326 10.573l-.067.484H2.132l-.013.134c-1.107 7.829 2.119 15.011 10.688 15.011 2.956 0 5.736-.686 8.583-2.138l-.917-2.381c-2.079 1.09-4.467 1.99-7.126 1.99-6.113 0-8.624-4.748-8.583-10.088h1.903c.027 4.278 1.93 8.205 6.95 8.205 2.915 0 5.506-1.277 7.976-2.77l2.172 5.756zM47.868 4.91l.365-2.543H32.497L30.96 13.235h14.723l-.89 6.295h-14.71l-1.768 12.523h2.82l1.404-9.994h1.875L32.74 33.922h-6.586l2.294-16.261h14.737l.365-2.543H28.813L30.878.484h19.5l-.89 6.295H36.573l-.554 3.9h-1.875l.81-5.783h12.914v.014zM81 .484L64.266 33.91h-1.229l-6.76-31.542H53.32l6.923 31.555h-1.998L50.918.484h6.937l6.357 29.565 13.86-27.682h-2.956l-9.784 19.706-.58-2.839L74.062.498H81V.484z" fill="red"/><path d="M3.198 42.114c.122-.861 0-1.224-.54-1.224-.607 0-.836.605-1.066 2.273-.256 1.789-.054 2.112.46 2.112.431 0 .782-.229.957-1.493h1.188c-.175 1.278-.648 2.367-2.213 2.367-1.782-.014-1.822-1.291-1.58-3.08.257-1.79.662-3.067 2.444-3.067 1.7 0 1.66 1.251 1.538 2.112H3.198zm6.33-1.991l-.135.969H7.288l-.19 1.385h1.984l-.134.968H6.95l-.23 1.588h2.2L8.787 46H5.398l.837-5.891h3.293v.013zm2.888 0l.877 4.035h.014l.566-4.035h1.094l-.837 5.892h-1.35l-.877-4.13h-.014l-.58 4.13h-1.093l.837-5.892h1.363zm7.679 0l-.135.969h-1.296l-.688 4.922h-1.188l.689-4.922H16.18l.135-.969h3.779zm4.642 0l-.135.969h-2.119l-.188 1.385h1.983l-.134.968H22.16l-.23 1.588h2.2l-.135.968h-3.387l.836-5.891h3.293v.013zm1.512 0h2.2c.971 0 1.497.511 1.363 1.52-.108.78-.5 1.318-1.188 1.453v.013c.796.108.864.552.702 1.803-.081.618-.095.941.121 1.062l-.013.054h-1.296c-.094-.161-.08-.39-.067-.619l.121-1.13c.054-.457-.121-.74-.594-.74h-.634l-.35 2.489h-1.189l.824-5.905zm.823 2.583h.5c.566 0 .93-.242 1.025-.888.08-.551-.175-.82-.715-.82h-.567l-.243 1.708zm9.325-2.704c1.795 0 1.836 1.278 1.58 3.067-.257 1.789-.662 3.066-2.443 3.066-1.795 0-1.836-1.277-1.58-3.066.257-1.79.662-3.067 2.443-3.067zm-.728 5.26c.701 0 .904-.606 1.133-2.193.216-1.574.19-2.193-.513-2.193-.701 0-.904.606-1.133 2.193-.23 1.587-.203 2.192.513 2.192zm4.264-5.139h3.307l-.135.969h-2.12l-.188 1.385h1.984l-.135.969h-1.984L40.298 46H39.11l.823-5.878zm7.477 0h3.306l-.135.969h-2.119l-.189 1.385h1.984l-.135.969h-1.984L47.774 46h-1.188l.824-5.878zm3.9 5.891l.837-5.89h1.187l-.837 5.89H51.31zm5.115-5.891l.877 4.035h.013l.567-4.035h1.093l-.836 5.892h-1.363l-.878-4.13h-.013l-.58 4.13H54.21l.837-5.892h1.377zm5.357 0h1.471l.73 5.892h-1.229l-.094-1.251h-1.58l-.445 1.25H59.38l2.402-5.89zm-.364 3.672h1.16l-.202-2.65h-.013l-.945 2.65zm6.019-3.672l.877 4.035h.014l.566-4.035h1.094l-.837 5.892h-1.363l-.877-4.13h-.014l-.58 4.13h-1.093l.837-5.892h1.376zm6.464 1.991c.122-.861 0-1.224-.54-1.224-.607 0-.836.605-1.066 2.273-.256 1.789-.053 2.112.46 2.112.431 0 .782-.229.958-1.493H74.9c-.175 1.278-.648 2.367-2.213 2.367-1.795 0-1.836-1.278-1.58-3.067.257-1.789.662-3.066 2.444-3.066 1.7 0 1.66 1.25 1.538 2.111h-1.188v-.013zm6.329-1.991l-.134.969h-2.12l-.188 1.385h1.984l-.135.968h-1.984l-.23 1.588h2.2l-.135.968h-3.387l.837-5.891h3.293v.013zM3.873 48.691h.729l-2.186 3.295h-.689L.472 48.691h.716l.958 2.811 1.727-2.81zm10.607 0l-.458 3.295h-.635l.46-3.295h.634zm12.578 2.905l-.053.39h-3.496l.459-3.295h3.455l-.054.39h-2.807l-.149 1.009h2.578l-.054.39h-2.578l-.162 1.103h2.861v.014zm9.299-2.501l.054-.39h3.846l-.054.39h-1.606L38.192 52h-.634l.405-2.905h-1.606zm16.059-.404h.621l-.459 3.295h-.715l-2.038-2.663-.391 2.663h-.62l.458-3.295h.756l1.984 2.663.404-2.663zm12.457 2.341H62.97l-.634.968h-.662l2.24-3.295h.73L65.884 52h-.702l-.31-.968zm-1.633-.404h1.457l-.499-1.453-.958 1.453zM79.516 52h-.621l.391-2.77L77.56 52h-.635l-.944-2.77-.392 2.77h-.62l.458-3.295h.905l.958 2.784 1.754-2.784h.904L79.516 52z" fill="#fff"/></g><defs><clipPath id="clip0"><path fill="#fff" d="M0 0h81v52H0z"/></clipPath></defs></svg>