<?xml version="1.0" encoding="UTF-8"?> <!-- Generator: Adobe Illustrator 22.0.0, SVG Export Plug-In . SVG Version: 6.00 Build 0) --> <svg xmlns="http://www.w3.org/2000/svg" xmlns:xlink="http://www.w3.org/1999/xlink" version="1.1" id="Layer_1" x="0px" y="0px" viewBox="0 0 829 388.6" style="enable-background:new 0 0 829 388.6;" xml:space="preserve"> <style type="text/css"> .st0{fill:none;stroke:#124AB3;stroke-width:2;stroke-miterlimit:10;} .st1{fill:#FFFFFF;stroke:#124AB3;stroke-width:2;stroke-miterlimit:10;} .st2{fill:none;stroke:#A5CBFF;stroke-width:2;stroke-miterlimit:10;} .st3{fill:#A5CBFF;} .st4{fill:none;stroke:#15CD72;stroke-width:2;stroke-miterlimit:10;} .st5{fill:none;stroke:#FFFFFF;stroke-width:2;stroke-miterlimit:10;} .st6{fill:#124AB3;} .st7{fill:#15CD72;} .st8{fill:#19B6FF;} </style> <g> <line class="st0" x1="408.9" y1="45.3" x2="585.8" y2="352.1"></line> <line class="st0" x1="595.4" y1="45.9" x2="419" y2="352"></line> <line class="st0" x1="85" y1="207.5" x2="708.3" y2="207.5"></line> <polygon class="st1" points="561.5,104.8 442.9,104.8 383.6,207.5 442.9,310.3 561.5,310.3 620.8,207.5 "></polygon> <polygon class="st2" points="211.2,115 104.3,115 50.9,207.5 104.3,300.1 211.2,300.1 264.6,207.5 "></polygon> <polygon class="st2" points="774,160.9 720.2,160.9 693.3,207.5 720.2,254.1 774,254.1 800.9,207.5 "></polygon> <polygon class="st3" points="553.9,118 450.5,118 398.8,207.5 450.5,297 553.9,297 605.6,207.5 "></polygon> <polyline class="st4" points="273.6,44.2 236,109.4 283,190.8 377,190.8 424,109.4 386.4,44.3 "></polyline> <polygon class="st4" points="680.1,78.1 621.5,78.1 592.2,128.8 621.5,179.6 680.1,179.6 709.4,128.8 "></polygon> <polygon class="st4" points="680.1,233.6 621.5,233.6 592.2,284.4 621.5,335.1 680.1,335.1 709.4,284.4 "></polygon> <polyline class="st4" points="536.6,352.8 528.7,339.2 470.1,339.2 462.4,352.5 "></polyline> <polyline class="st4" points="403.1,352.7 428.2,309.4 381.2,227.9 287.1,227.9 240.1,309.4 264.9,352.3 "></polyline> <polygon class="st5" points="544.1,134.9 460.3,134.9 418.3,207.5 460.3,280.2 544.1,280.2 586.1,207.5 "></polygon> <polygon class="st2" points="365.1,48.6 294.9,48.6 259.8,109.4 294.9,170.1 365.1,170.1 400.1,109.4 "></polygon> <polygon class="st6" points="539.8,169.8 497.3,169.8 476.1,206.5 497.3,243.3 539.8,243.3 561,206.5 "></polygon> <polygon class="st7" points="287.7,158.1 231.8,158.1 203.8,206.5 231.8,255 287.7,255 315.7,206.5 "></polygon> <polygon class="st3" points="373.6,253.6 331.1,253.6 309.9,290.4 331.1,327.1 373.6,327.1 394.8,290.4 "></polygon> <polygon class="st8" points="135.3,172.6 96,172.6 76.4,206.5 96,240.5 135.3,240.5 154.9,206.5 "></polygon> <polygon class="st3" points="720.1,164.9 672,164.9 647.9,206.5 672,248.2 720.1,248.2 744.1,206.5 "></polygon> <polygon class="st5" points="714.6,177.2 680.8,177.2 663.9,206.5 680.8,235.8 714.6,235.8 731.5,206.5 "></polygon> <polygon class="st5" points="280.3,170.9 239.2,170.9 218.6,206.5 239.2,242.1 280.3,242.1 300.9,206.5 "></polygon> </g> </svg> 