<?xml version="1.0" encoding="UTF-8"?> <!-- Generator: Adobe Illustrator 22.0.0, SVG Export Plug-In . SVG Version: 6.00 Build 0) --> <svg xmlns="http://www.w3.org/2000/svg" xmlns:xlink="http://www.w3.org/1999/xlink" version="1.1" id="Layer_1" x="0px" y="0px" viewBox="0 0 736 292.5" style="enable-background:new 0 0 736 292.5;" xml:space="preserve"> <style type="text/css"> .st0{fill:#FFFFFF;stroke:#15CD72;stroke-width:2;stroke-miterlimit:10;} .st1{fill:#A5CBFF;stroke:#FFFFFF;stroke-width:2;stroke-miterlimit:10;} .st2{fill:none;stroke:#A5CBFF;stroke-width:2;stroke-miterlimit:10;} .st3{fill:#FFFFFF;} .st4{fill:#FFFFFF;stroke:#19B6FF;stroke-width:2;stroke-miterlimit:10;} .st5{fill:#15CD72;} .st6{fill:none;stroke:#19B6FF;stroke-width:2;stroke-linejoin:round;stroke-miterlimit:10;} .st7{fill:#1969FF;} .st8{fill:#A5CBFF;} .st9{fill:#19B6FF;} </style> <g> <polygon class="st0" points="629.9,50.6 584.1,50.6 561.3,90.3 584.1,129.9 629.9,129.9 652.8,90.3 "></polygon> <g> <circle class="st0" cx="93.4" cy="91.1" r="26.2"></circle> <circle class="st1" cx="93.4" cy="91.1" r="8.1"></circle> </g> <path class="st2" d="M90.4,90.9h102c3.9,0,7,3.1,7,7v16.8c0,3.9,3.1,7,7,7h259.8c3.9,0,7-3.1,7-7V97.9c0-3.9,3.1-7,7-7h221.6"></path> <path class="st2" d="M90.4,129.9h69c3.9,0,7,3.1,7,7v15c0,3.9,3.1,7,7,7h310.3c3.9,0,7-3.1,7-7l0-15c0-3.9,3.1-7,4-7h211.7"></path> <path class="st2" d="M90.4,200.9h415.8c3.9,0,7-3.1,7-7v-16c0-3.9,3.1-7,7-7h101.8"></path> <path class="st3" d="M283.2,87.2l-0.2,65.7c-0.1,51.8,29.4,79.1,76,101.8h0l0.2-0.1c46.5-22.6,76-49.7,76-101.4V88.2l-76-37.4 L283.2,87.2z"></path> <g> <circle class="st4" cx="110.9" cy="194.1" r="33.3"></circle> <circle class="st5" cx="110.9" cy="194.1" r="22.8"></circle> </g> <g> <g> <path class="st6" d="M283.2,87.2l-0.2,65.7c-0.1,51.8,29.4,79.1,76,101.8l0,0l0.2-0.1c46.5-22.6,76-49.7,76-101.4V88.2"></path> <polygon class="st6" points="359.1,50.3 282.9,87.3 359.1,124.4 435.3,87.3 "></polygon> <polygon class="st6" points="359.1,124.9 282.9,160.4 359.1,197.4 435.3,160.4 "></polygon> <line class="st6" x1="358.8" y1="124.4" x2="358.8" y2="197.4"></line> </g> </g> <rect x="505.2" y="83.8" transform="matrix(0.7071 -0.7071 0.7071 0.7071 85.8003 388.7664)" class="st7" width="14.1" height="14.1"></rect> <circle class="st8" cx="699.3" cy="129.8" r="8"></circle> <g> <g> <g> <polygon class="st3" points="601,182.5 646.7,170.5 636.6,215.2 593.4,232.7 "></polygon> <path class="st9" d="M645.3,171.9l-9.6,42.6l-41.1,16.6l7.2-47.8L645.3,171.9 M648,169.1l-47.9,12.5l-7.9,52.6l45.3-18.3 L648,169.1L648,169.1z"></path> </g> <g> <polygon class="st3" points="566.9,153.6 612.8,141.8 645.8,168.8 600.2,182.2 "></polygon> <path class="st9" d="M612.6,142.9l31.2,25.5L600.5,181l-31.5-27L612.6,142.9 M613,140.7l-48.3,12.4l35.2,30.2l47.9-14L613,140.7 L613,140.7z"></path> </g> <polygon class="st2" points="612.2,148.3 635.1,166.7 601.9,175.5 580,156.5 "></polygon> <polygon class="st9" points="600,183.3 564.8,153.1 561.6,199.7 592.4,234.6 "></polygon> </g> <polygon class="st3" points="599,177.3 600.3,180.9 602,182.5 601.5,185.8 645.1,172.9 645.9,169.8 640.9,166.1 602.9,178.8 "></polygon> </g> <polygon class="st7" points="224.1,144 207.5,144 199.2,158.4 207.5,172.7 224.1,172.7 232.4,158.4 "></polygon> </g> </svg> 