<svg width="246" height="56" viewBox="0 0 246 56" fill="none" xmlns="http://www.w3.org/2000/svg">
<path d="M75.0626 24.0139C77.1109 24.0139 78.7404 22.1695 78.7404 19.9664C78.7404 17.7121 77.0644 15.9189 75.0626 15.9189C73.0142 15.9189 71.3848 17.7634 71.3848 19.9664C71.3848 22.2207 73.0142 24.0139 75.0626 24.0139Z" fill="#FCC265"/>
<path d="M50.7612 32.1599L56.4874 40.7159H61.3291L55.6029 32.1599H50.7612Z" fill="#FCC265"/>
<path d="M54.02 26.1656H46.8506V18.1732H54.02C56.0218 18.1732 57.6512 19.9663 57.6512 22.1694C57.6512 24.3725 56.0218 26.1656 54.02 26.1656ZM61.5152 22.1694C61.5152 17.917 58.3961 14.4331 54.4855 14.4331H42.3813V29.8545V40.6648H46.8971V29.9057H54.5321C58.3495 29.9057 61.5152 26.4218 61.5152 22.1694Z" fill="#FCC265"/>
<path d="M73.095 40.03C68.8334 46.2969 61.6641 50.4582 53.5421 50.4582C40.5069 50.4582 29.9282 39.8796 29.9282 26.8443C29.9282 13.8091 40.4567 3.23047 53.492 3.23047L38.6518 4.53399L29.0258 14.16L25.1152 29.4514L28.6247 40.3809L32.1342 47.3999L40.0055 52.6641L53.9933 55.2712L61.4134 53.0652L71.4906 46.0462L73.095 40.03Z" fill="#FFE2B3"/>
<path d="M102.494 33.1195C102.444 32.8688 102.344 32.6181 102.244 32.4677C102.143 32.3173 102.093 32.1669 101.993 32.0165C101.692 31.465 101.441 31.1642 101.241 30.9636C100.489 30.1113 99.7869 29.5097 99.085 29.0083C98.3831 28.507 97.7313 28.1059 97.0795 27.7549C95.776 27.0531 94.6229 26.5517 93.5701 26.2007C91.4644 25.4487 89.9102 25.1479 88.7069 25.0476C86.3004 24.8471 85.4481 25.4487 85.2476 26.0002C85.2476 26.0002 84.9969 26.1005 86.2503 26.8024C86.902 27.1533 87.9047 27.6547 89.5091 28.4568C90.3112 28.8579 91.2137 29.3593 92.3167 29.9108C93.3695 30.5124 94.6229 31.2143 95.8262 32.0666C95.9766 32.1669 96.2272 32.3674 96.5281 32.6181C96.879 32.8688 97.2801 33.2197 97.5809 33.6208C97.7313 33.8214 97.9318 34.0219 97.982 34.1723C98.0321 34.2224 98.0321 34.2726 98.0321 34.2726C98.0321 34.3227 98.0823 34.3227 98.0823 34.3227C98.0321 34.3728 97.982 34.423 97.8817 34.4731C97.4806 34.7739 96.8289 35.0246 96.127 35.2251C95.4251 35.4257 94.7232 35.5761 94.0714 35.7265C92.7679 35.9772 91.7652 36.0273 91.3641 36.0775C91.0131 36.1276 90.0606 36.1777 88.8573 36.278C87.6039 36.3281 86.0999 36.3783 84.5457 36.3783C81.4874 36.3783 78.379 36.1777 77.6771 36.1777C77.0755 36.1276 76.4738 36.1276 75.9223 36.0775L74.669 36.0273C72.7638 35.927 71.1595 35.8268 69.8058 35.7265C67.8505 35.5761 66.4969 35.526 65.5443 35.4758C63.6893 35.3756 63.4887 35.526 63.4887 35.526C63.4386 36.0775 64.2909 37.0802 66.8478 38.1831C68.1513 38.7346 69.8559 39.2861 72.1622 39.7373C72.2123 39.7373 72.2123 39.7373 72.2624 39.7373C72.1622 39.8878 72.0619 40.0382 71.9616 40.1886C71.6608 40.6398 71.3099 41.1913 70.9589 41.6926C70.2069 42.6953 69.3546 43.7482 68.3017 44.7509C66.196 46.8065 63.3884 48.7617 59.7787 50.1154C59.3776 50.2658 58.6256 50.5165 57.5226 50.8173C56.4196 51.1181 55.0659 51.3688 53.4115 51.5192C51.8071 51.6696 49.9521 51.6195 48.047 51.3688C46.1418 51.1181 44.1865 50.5666 42.2814 49.8146C40.4264 49.0626 38.6215 48.0097 37.0673 46.8566C35.5131 45.7035 34.2096 44.4 33.1567 43.1466C31.051 40.6398 29.9982 38.3837 29.6472 37.5815C29.2963 36.8295 28.3938 34.7238 27.8925 31.8661C27.6418 30.4121 27.4914 28.8078 27.5415 27.1032C27.5917 25.3986 27.7922 23.5937 28.2434 21.839C29.0957 18.3295 30.8505 15.1208 32.6554 12.8647C34.4602 10.6086 36.215 9.20479 36.8667 8.70344C39.925 6.29693 43.1838 4.99341 46.0917 4.29151C49.0497 3.58961 51.7069 3.53947 53.963 3.74002C56.2191 3.94056 58.1242 4.44191 59.6784 4.94327C61.2326 5.44463 62.4359 6.04625 63.4386 6.54761C65.3939 7.55032 66.3464 8.30235 66.8979 8.6533C67.4494 9.05439 67.5497 9.05439 67.5497 9.05439C67.65 8.95411 67.65 8.75357 67.4996 8.40262C67.4494 8.25222 67.3492 8.05167 67.1988 7.801C67.0483 7.55032 66.8478 7.29964 66.6473 6.99883C66.4467 6.69801 66.1459 6.3972 65.795 6.04625C65.444 5.6953 65.0429 5.34435 64.5917 4.94327C63.6893 4.19124 62.486 3.33893 60.9318 2.53676C59.3776 1.73459 57.4725 1.0327 55.1662 0.53134C54.0131 0.280663 52.7597 0.130256 51.4562 0.0299849C50.1025 -0.0201507 48.6987 -0.0201507 47.1947 0.130256C44.2367 0.53134 40.8776 1.38365 37.5686 3.18853C34.2597 4.99341 30.9006 7.70072 28.2434 11.4609C27.6919 12.2631 26.5388 13.9677 25.486 16.3742C24.9846 17.5774 24.4833 18.9311 24.0822 20.385C23.6811 21.839 23.4304 23.3932 23.28 24.9975C23.28 25.1479 23.28 25.2482 23.2299 25.3986C22.0768 25.0978 21.0239 24.6967 20.0212 24.3457C8.74069 20.2848 4.67972 16.9758 4.47917 15.8227C5.0808 14.82 10.1445 13.2658 22.177 13.717C22.2272 13.5666 22.2773 13.4162 22.3776 13.3159C23.0293 11.8118 23.7312 10.5585 24.3329 9.65601C9.29219 8.85384 1.2705 10.6587 0.418193 15.0707C-0.434111 19.4826 6.28405 24.0951 20.3721 28.9081C21.2746 29.2089 22.2272 29.5598 23.2299 29.8606C23.3301 31.3647 23.5307 32.7685 23.8315 34.0219C24.4331 36.6289 25.2353 38.5341 25.6865 39.4867C26.0876 40.3891 27.1404 42.5951 28.9955 45.0016C30.8505 47.4582 33.5578 50.0653 36.7665 51.9704C38.3708 52.923 40.0253 53.7252 41.7299 54.3268C43.3844 54.9284 45.0388 55.3295 46.5429 55.5802C49.551 56.1317 51.9074 55.9813 52.86 55.9813C57.4725 55.7306 61.4332 54.3769 64.6418 52.5721C67.8505 50.7672 70.257 48.5612 72.0619 46.4054C72.9643 45.3024 73.7164 44.1994 74.318 43.1967C74.8695 42.194 75.3708 41.2414 75.7719 40.339C77.276 40.5395 78.8803 40.6899 80.7354 40.7902C81.4874 40.8403 83.8438 40.8905 86.2503 40.8905C88.6568 40.8905 91.1134 40.6899 91.8654 40.5897C92.2665 40.5395 93.169 40.4392 94.3722 40.2387C95.5755 40.0382 97.0294 39.7373 98.5836 39.1357C99.3858 38.8349 100.188 38.4338 100.99 37.7319C101.191 37.5815 101.391 37.381 101.592 37.1303C101.692 37.03 101.792 36.8796 101.893 36.7794C101.993 36.6289 102.043 36.5287 102.143 36.3783C102.193 36.2279 102.294 36.1276 102.344 35.9772C102.394 35.8268 102.444 35.6764 102.494 35.5761C102.544 35.4257 102.594 35.3254 102.594 35.175C102.594 35.0246 102.645 34.8742 102.645 34.7739C102.695 34.1222 102.594 33.5707 102.494 33.1195Z" fill="#FCC265"/>
<path d="M119.837 15.1082V20.8621H123.786C126.289 20.8621 127.234 20.0051 127.234 17.9851C127.234 15.904 126.289 15.1082 123.786 15.1082H119.837ZM117 12.2925H123.619C128.291 12.2925 130.182 13.9452 130.182 17.8015C130.182 20.6172 129.181 22.2087 126.845 22.8821L130.627 29.0032H127.401L123.897 23.2493C123.619 23.2493 123.285 23.2493 122.951 23.2493H119.837V28.942H117V12.2925Z" fill="#FCC265"/>
<path d="M140.138 22.8207H145.589L142.864 15.7201L140.138 22.8207ZM151.151 29.003H147.758L146.368 25.3304H139.36L137.969 29.003H134.632L141.028 12.3535H144.699L151.151 29.003Z" fill="#FCC265"/>
<path d="M170.118 29.0032H167.114L159.105 17.373V29.0032H156.324V12.2925H159.272L167.337 23.9839V12.2925H170.118V29.0032Z" fill="#FCC265"/>
<path d="M189.974 14.4348L188.139 16.5772C187.027 15.4754 185.692 14.9857 184.246 14.9857C182.799 14.9857 181.52 15.5366 180.519 16.5772C179.518 17.679 178.962 19.0256 178.962 20.6783C178.962 22.2698 179.462 23.5553 180.408 24.7183C181.409 25.8201 182.577 26.371 184.023 26.371C185.469 26.371 186.748 25.9425 187.805 25.0243V22.2086H184.19V19.9438H190.531V26.6771C188.695 28.391 186.526 29.2479 184.023 29.2479C179.685 29.3704 175.902 25.3304 176.014 20.6783C176.014 15.4754 179.907 12.0475 184.246 12.1087C186.47 12.1087 188.361 12.9045 189.974 14.4348Z" fill="#FCC265"/>
<path d="M208.886 15.1082H199.931V19.2094H208.274V21.9027H199.931V26.1875H209.108V29.0032H197.094V12.2925H208.886V15.1082Z" fill="#FCC265"/>
<path d="M217.563 15.1082V20.8621H221.512C224.015 20.8621 224.96 20.0051 224.96 17.9851C224.96 15.904 224.015 15.1082 221.512 15.1082H217.563ZM214.726 12.2925H221.345C226.017 12.2925 227.908 13.9452 227.908 17.8015C227.908 20.6172 226.907 22.2087 224.571 22.8821L228.353 29.0032H225.127L221.623 23.2493C221.345 23.2493 221.011 23.2493 220.678 23.2493H217.563V28.942H214.726V12.2925Z" fill="#FCC265"/>
<path d="M244.316 16.2712C242.703 15.2918 240.645 14.6797 239.032 14.6797C237.475 14.6797 236.418 15.353 236.418 16.6997C236.418 17.1894 236.641 17.5566 237.03 17.8627C237.419 18.1688 238.309 18.4748 239.644 18.8421C241.813 19.5154 243.204 20.0051 243.927 20.4336C245.206 21.2905 245.818 22.5148 245.874 24.1063C245.874 25.6978 245.317 26.9832 244.205 27.8402C243.093 28.6971 241.646 29.1256 239.811 29.1256C237.085 29.1256 234.749 28.3911 232.747 26.922L234.026 24.596C235.806 25.759 238.087 26.4323 240.145 26.4323C241.758 26.4323 242.981 25.759 242.981 24.4123C242.981 23.739 242.87 23.2493 242.425 23.0045C242.091 22.7596 241.925 22.6372 241.313 22.4536C240.701 22.2087 240.478 22.1475 239.533 21.9027L238.977 21.719C237.419 21.2905 236.474 20.9845 235.528 20.4948C234.138 19.7603 233.47 18.7197 233.47 17.0669C233.47 14.8021 234.694 13.2106 236.418 12.5373C238.977 11.4355 243.204 12.1088 245.595 13.8227L244.316 16.2712Z" fill="#FCC265"/>
<path d="M151.485 39.042V41.2456H152.653C153.487 41.2456 153.877 40.8783 153.877 40.1438C153.877 39.4092 153.487 39.042 152.653 39.042H151.485ZM150.54 38.1238H152.709C154.266 38.1238 154.934 38.7359 154.934 40.0825C154.934 41.4292 154.211 42.0413 152.709 42.0413H151.485V43.8164H150.54V38.1238Z" fill="#FCC265"/>
<path d="M159.383 39.1032V41.0619H160.718C161.552 41.0619 161.886 40.7559 161.886 40.0825C161.886 39.348 161.552 39.1032 160.718 39.1032H159.383ZM158.438 38.1238H160.718C162.331 38.1238 162.943 38.6747 162.943 40.0213C162.943 41.0007 162.609 41.5516 161.83 41.7353L163.11 43.8164H161.997L160.829 41.8577C160.718 41.8577 160.607 41.8577 160.495 41.8577H159.439V43.8164H158.493V38.1238H158.438Z" fill="#FCC265"/>
<path d="M167.726 39.593C167.392 39.9603 167.225 40.45 167.225 40.9397C167.225 41.4906 167.392 41.9191 167.726 42.3475C168.06 42.7148 168.449 42.8985 168.95 42.8985C169.45 42.8985 169.839 42.7148 170.173 42.3475C170.507 41.9803 170.674 41.4906 170.674 40.9397C170.674 39.8991 169.895 38.9809 168.894 38.9809C168.505 39.0421 168.06 39.2258 167.726 39.593ZM168.95 38.0627C169.951 38.0627 170.841 38.6137 171.341 39.5318C171.564 39.9603 171.731 40.45 171.731 41.0009C171.731 42.1027 171.23 43.0209 170.34 43.5718C169.895 43.8166 169.45 43.939 168.95 43.939C167.948 43.939 167.058 43.3881 166.558 42.47C166.335 42.0415 166.168 41.5518 166.168 41.0009C166.168 39.9603 166.669 38.9809 167.559 38.43C168.004 38.1852 168.505 38.0627 168.95 38.0627Z" fill="#FCC265"/>
<path d="M178.739 39.042H177.07V43.8776H176.125V39.042H174.456V38.1238H178.739V39.042Z" fill="#FCC265"/>
<path d="M182.966 39.5928C182.632 39.9601 182.465 40.4497 182.465 40.9394C182.465 41.4903 182.632 41.9188 182.966 42.3473C183.3 42.7146 183.689 42.8982 184.19 42.8982C184.69 42.8982 185.08 42.7146 185.413 42.3473C185.747 41.98 185.914 41.4903 185.914 40.9394C185.914 39.8988 185.135 38.9807 184.134 38.9807C183.689 39.0419 183.3 39.2255 182.966 39.5928ZM184.19 38.0625C185.191 38.0625 186.081 38.6134 186.581 39.5316C186.804 39.9601 186.971 40.4498 186.971 41.0007C186.971 42.1025 186.47 43.0206 185.58 43.5715C185.135 43.8164 184.69 43.9388 184.19 43.9388C183.189 43.9388 182.299 43.3879 181.798 42.4697C181.576 42.0412 181.409 41.5516 181.409 41.0007C181.409 39.9601 181.909 38.9807 182.799 38.4298C183.244 38.1849 183.689 38.0625 184.19 38.0625Z" fill="#FCC265"/>
<path d="M195.258 39.2255L194.424 39.7764C194.09 39.2867 193.645 39.1031 193.089 39.1031C192.588 39.1031 192.199 39.2867 191.865 39.654C191.532 40.0213 191.365 40.5109 191.365 41.0006C191.365 41.5515 191.532 41.98 191.865 42.4085C192.199 42.7758 192.588 42.9594 193.089 42.9594C193.645 42.9594 194.09 42.7146 194.424 42.2861L195.258 42.837C194.758 43.5715 193.923 44 193.089 44C191.587 44 190.364 42.7146 190.364 41.0619C190.308 39.4704 191.587 38.0625 193.089 38.1237C193.979 38.0625 194.758 38.491 195.258 39.2255Z" fill="#FCC265"/>
<path d="M199.931 39.5928C199.597 39.9601 199.43 40.4497 199.43 40.9394C199.43 41.4903 199.597 41.9188 199.931 42.3473C200.265 42.7146 200.654 42.8982 201.155 42.8982C201.655 42.8982 202.045 42.7146 202.378 42.3473C202.712 41.98 202.879 41.4903 202.879 40.9394C202.879 39.8988 202.1 38.9807 201.099 38.9807C200.71 39.0419 200.265 39.2255 199.931 39.5928ZM201.21 38.0625C202.211 38.0625 203.101 38.6134 203.602 39.5316C203.824 39.9601 203.991 40.4498 203.991 41.0007C203.991 42.1025 203.491 43.0206 202.601 43.5715C202.156 43.8164 201.711 43.9388 201.21 43.9388C200.209 43.9388 199.319 43.3879 198.819 42.4697C198.596 42.0412 198.429 41.5516 198.429 41.0007C198.429 39.9601 198.93 38.9807 199.82 38.4298C200.209 38.1849 200.71 38.0625 201.21 38.0625Z" fill="#FCC265"/>
<path d="M208.496 42.8983H211.277V43.8776H207.551V38.1238H208.496V42.8983Z" fill="#FCC265"/>
</svg>
